REM DIRINDEX 1\3,1\2\4,1\2\5,1\2\6
REM DIRNAME folder01,folder02,folder03,folder04,folder05,folder06
TITLE ""
FILE "058.mp3" MP3
  TRACK 01 AUDIO
    TITLE "4:cjc137_2360"
    INDEX 01 00:00:00
  TRACK 02 AUDIO
    TITLE "0:"
    INDEX 01 00:01:01
  TRACK 03 AUDIO
    TITLE "6:cjc137_2361"
    INDEX 01 00:01:13
  TRACK 04 AUDIO
    TITLE "0:"
    INDEX 01 00:02:16
  TRACK 05 AUDIO
    TITLE "5:cjc137_2362"
    INDEX 01 00:02:24
  TRACK 06 AUDIO
    TITLE "0:"
    INDEX 01 00:03:25
  TRACK 07 AUDIO
    TITLE "4:cjc137_2363"
    INDEX 01 00:04:36
  TRACK 08 AUDIO
    TITLE "0:"
    INDEX 01 00:05:52
  TRACK 09 AUDIO
    TITLE "6:cjc137_2364"
    INDEX 01 00:05:57
  TRACK 10 AUDIO
    TITLE "0:"
    INDEX 01 00:06:43
  TRACK 11 AUDIO
    TITLE "5:cjc137_2365"
    INDEX 01 00:06:49
  TRACK 12 AUDIO
    TITLE "0:"
    INDEX 01 00:07:64
  TRACK 13 AUDIO
    TITLE "4:cjc137_2366"
    INDEX 01 00:08:73
  TRACK 14 AUDIO
    TITLE "0:"
    INDEX 01 00:10:00
  TRACK 15 AUDIO
    TITLE "6:cjc137_2367"
    INDEX 01 00:10:06
  TRACK 16 AUDIO
    TITLE "0:"
    INDEX 01 00:10:68
  TRACK 17 AUDIO
    TITLE "5:cjc137_2368"
    INDEX 01 00:11:01
  TRACK 18 AUDIO
    TITLE "0:"
    INDEX 01 00:12:03
  TRACK 19 AUDIO
    TITLE "4:cjc137_2369"
    INDEX 01 00:13:10
  TRACK 20 AUDIO
    TITLE "0:"
    INDEX 01 00:14:31
  TRACK 21 AUDIO
    TITLE "6:cjc137_2370"
    INDEX 01 00:14:37
  TRACK 22 AUDIO
    TITLE "0:"
    INDEX 01 00:15:58
  TRACK 23 AUDIO
    TITLE "5:cjc137_2371"
    INDEX 01 00:15:66
  TRACK 24 AUDIO
    TITLE "0:"
    INDEX 01 00:17:12
  TRACK 25 AUDIO
    TITLE "4:cjc137_2372"
    INDEX 01 00:18:21
  TRACK 26 AUDIO
    TITLE "0:"
    INDEX 01 00:19:28
  TRACK 27 AUDIO
    TITLE "6:cjc137_2373"
    INDEX 01 00:19:38
  TRACK 28 AUDIO
    TITLE "0:"
    INDEX 01 00:20:36
  TRACK 29 AUDIO
    TITLE "5:cjc137_2374"
    INDEX 01 00:20:43
  TRACK 30 AUDIO
    TITLE "0:"
    INDEX 01 00:21:49
  TRACK 31 AUDIO
    TITLE "4:cjc137_2375"
    INDEX 01 00:22:58
  TRACK 32 AUDIO
    TITLE "0:"
    INDEX 01 00:23:73
  TRACK 33 AUDIO
    TITLE "6:cjc137_2376"
    INDEX 01 00:24:06
  TRACK 34 AUDIO
    TITLE "0:"
    INDEX 01 00:25:21
  TRACK 35 AUDIO
    TITLE "5:cjc137_2377"
    INDEX 01 00:25:29
  TRACK 36 AUDIO
    TITLE "0:"
    INDEX 01 00:26:46
  TRACK 37 AUDIO
    TITLE "4:cjc137_2378"
    INDEX 01 00:27:51
  TRACK 38 AUDIO
    TITLE "0:"
    INDEX 01 00:28:64
  TRACK 39 AUDIO
    TITLE "6:cjc137_2379"
    INDEX 01 00:28:70
  TRACK 40 AUDIO
    TITLE "0:"
    INDEX 01 00:30:06
  TRACK 41 AUDIO
    TITLE "5:cjc137_2380"
    INDEX 01 00:30:12
  TRACK 42 AUDIO
    TITLE "0:"
    INDEX 01 00:31:24
  TRACK 43 AUDIO
    TITLE "4:cjc137_2381"
    INDEX 01 00:32:29
  TRACK 44 AUDIO
    TITLE "0:"
    INDEX 01 00:33:30
  TRACK 45 AUDIO
    TITLE "6:cjc137_2382"
    INDEX 01 00:33:36
  TRACK 46 AUDIO
    TITLE "0:"
    INDEX 01 00:34:40
  TRACK 47 AUDIO
    TITLE "5:cjc137_2383"
    INDEX 01 00:34:43
  TRACK 48 AUDIO
    TITLE "0:"
    INDEX 01 00:35:43
  TRACK 49 AUDIO
    TITLE "4:cjc137_2384"
    INDEX 01 00:36:50
  TRACK 50 AUDIO
    TITLE "0:"
    INDEX 01 00:37:63
  TRACK 51 AUDIO
    TITLE "6:cjc137_2385"
    INDEX 01 00:37:69
  TRACK 52 AUDIO
    TITLE "0:"
    INDEX 01 00:39:00
  TRACK 53 AUDIO
    TITLE "5:cjc137_2386"
    INDEX 01 00:39:07
  TRACK 54 AUDIO
    TITLE "0:"
    INDEX 01 00:40:19
  TRACK 55 AUDIO
    TITLE "4:cjc137_2387"
    INDEX 01 00:41:26
  TRACK 56 AUDIO
    TITLE "0:"
    INDEX 01 00:42:31
  TRACK 57 AUDIO
    TITLE "6:cjc137_2388"
    INDEX 01 00:42:39
  TRACK 58 AUDIO
    TITLE "0:"
    INDEX 01 00:43:27
  TRACK 59 AUDIO
    TITLE "5:cjc137_2389"
    INDEX 01 00:43:37
  TRACK 60 AUDIO
    TITLE "0:"
    INDEX 01 00:44:42
  TRACK 61 AUDIO
    TITLE "4:cjc137_2390"
    INDEX 01 00:45:51
  TRACK 62 AUDIO
    TITLE "0:"
    INDEX 01 00:46:56
  TRACK 63 AUDIO
    TITLE "6:cjc137_2391"
    INDEX 01 00:46:60
  TRACK 64 AUDIO
    TITLE "0:"
    INDEX 01 00:47:46
  TRACK 65 AUDIO
    TITLE "5:cjc137_2392"
    INDEX 01 00:47:56
  TRACK 66 AUDIO
    TITLE "0:"
    INDEX 01 00:48:61
  TRACK 67 AUDIO
    TITLE "4:cjc137_2393"
    INDEX 01 00:49:65
  TRACK 68 AUDIO
    TITLE "0:"
    INDEX 01 00:50:66
  TRACK 69 AUDIO
    TITLE "6:cjc137_2394"
    INDEX 01 00:51:01
  TRACK 70 AUDIO
    TITLE "0:"
    INDEX 01 00:51:67
  TRACK 71 AUDIO
    TITLE "5:cjc137_2395"
    INDEX 01 00:51:73
  TRACK 72 AUDIO
    TITLE "0:"
    INDEX 01 00:53:00
  TRACK 73 AUDIO
    TITLE "4:cjc137_2396"
    INDEX 01 00:54:09
  TRACK 74 AUDIO
    TITLE "0:"
    INDEX 01 00:55:10
  TRACK 75 AUDIO
    TITLE "6:cjc137_2397"
    INDEX 01 00:55:18
  TRACK 76 AUDIO
    TITLE "0:"
    INDEX 01 00:56:22
  TRACK 77 AUDIO
    TITLE "5:cjc137_2398"
    INDEX 01 00:56:25
  TRACK 78 AUDIO
    TITLE "0:"
    INDEX 01 00:57:25
  TRACK 79 AUDIO
    TITLE "4:cjc137_2399"
    INDEX 01 00:58:36
  TRACK 80 AUDIO
    TITLE "0:"
    INDEX 01 00:59:49
  TRACK 81 AUDIO
    TITLE "6:cjc137_2400"
    INDEX 01 00:59:59
  TRACK 82 AUDIO
    TITLE "0:"
    INDEX 01 01:00:57
  TRACK 83 AUDIO
    TITLE "5:cjc137_2401"
    INDEX 01 01:00:64
  TRACK 84 AUDIO
    TITLE "0:"
    INDEX 01 01:02:03
